<svg xmlns="http://www.w3.org/2000/svg" xmlns:xlink="http://www.w3.org/1999/xlink" preserveAspectRatio="xMidYMid" width="18" height="24" viewBox="0 0 18 24">
  <defs>
    <style>
      .cls-1 {
        fill: #fff;
        fill-rule: evenodd;
      }
    </style>
  </defs>
  <path d="M5.246,1.155 C5.246,1.333 4.070,5.422 3.437,7.555 C3.437,7.644 3.256,7.911 2.985,7.911 C2.804,7.911 1.085,7.377 0.271,7.111 C-0.000,7.022 -0.000,6.933 -0.000,6.666 C-0.000,6.133 1.357,1.066 1.990,-0.000 C2.080,-0.000 5.246,0.444 5.246,1.155 ZM17.729,0.711 C17.909,0.711 18.000,0.977 18.000,1.155 C18.000,1.422 16.824,5.511 16.191,7.644 C16.191,7.733 16.010,7.911 15.829,7.911 C15.558,7.911 13.930,7.377 13.025,7.111 C12.844,7.022 12.844,6.844 12.844,6.577 C12.844,6.400 13.206,4.622 13.477,3.822 C13.839,2.666 14.020,1.066 14.744,-0.000 C15.739,0.178 16.734,0.356 17.729,0.711 ZM12.935,3.200 C12.754,4.177 12.482,4.711 12.302,5.600 L10.636,5.600 L10.636,8.889 C12.084,9.333 12.988,11.022 12.988,12.089 C12.988,13.244 12.121,14.933 10.492,15.911 C10.673,19.022 10.583,19.111 10.492,19.200 L12.273,19.200 L12.273,21.599 L4.909,21.599 L4.909,19.200 L6.899,19.200 C6.899,19.111 7.327,19.022 7.507,15.911 C5.608,14.844 5.012,13.422 5.012,12.089 C5.012,10.666 5.464,9.689 7.364,8.533 L7.364,5.600 L4.909,5.600 L4.909,5.688 C5.180,4.977 5.361,3.911 5.633,3.200 L12.935,3.200 ZM10.492,12.089 C10.492,13.066 9.769,13.600 8.955,13.600 C7.869,13.600 7.417,12.889 7.417,12.089 C7.417,11.200 8.050,10.577 8.955,10.577 C10.040,10.577 10.492,11.466 10.492,12.089 ZM3.824,16.800 L4.091,17.066 L4.091,23.555 C4.000,23.733 3.910,23.911 3.819,24.000 L1.089,24.000 L0.818,23.733 L0.818,16.800 L3.824,16.800 ZM16.364,16.800 L16.364,23.911 L16.096,24.000 L13.362,24.000 C13.181,23.822 13.091,23.644 13.091,23.466 L13.091,17.066 L13.362,16.800 L16.364,16.800 Z" class="cls-1"/>
</svg>
