<?xml version="1.0" encoding="utf-8"?>
<!-- Generator: Adobe Illustrator 19.0.0, SVG Export Plug-In . SVG Version: 6.00 Build 0)  -->
<svg version="1.1" id="Layer_1" xmlns="http://www.w3.org/2000/svg" xmlns:xlink="http://www.w3.org/1999/xlink" x="0px" y="0px"
	 width="9.8px" height="13.9px" viewBox="-988 988.2 9.8 13.9" style="enable-background:new -988 988.2 9.8 13.9;"
	 xml:space="preserve">
<style type="text/css">
	.st0{opacity:0.19;enable-background:new    ;}
	.st1{fill:#1D93EB;}
	.st2{fill:#256DD6;}
	.st3{fill:#0234A5;}
</style>
<g>
	<ellipse class="st0" cx="-983.1" cy="1001.1" rx="3" ry="1"/>
	<path class="st1" d="M-983.1,988.2c-2.7,0-4.9,2.2-4.9,4.8s4.9,8.1,4.9,8.1s4.9-5.4,4.9-8.1S-980.4,988.2-983.1,988.2z"/>
	<circle class="st2" cx="-983.1" cy="992.7" r="1.2"/>
	<path class="st3" d="M-983.1,991.7c0.6,0,1.1,0.5,1.2,1.1c0-0.1,0-0.1,0-0.1c0-0.7-0.5-1.2-1.2-1.2c-0.7,0-1.2,0.5-1.2,1.2
		c0,0.1,0,0.1,0,0.1C-984.2,992.2-983.7,991.7-983.1,991.7z"/>
</g>
</svg>
