<svg xmlns="http://www.w3.org/2000/svg" xmlns:xlink="http://www.w3.org/1999/xlink" preserveAspectRatio="xMidYMid" width="23" height="14" viewBox="0 0 23 14">
  <defs>
    <style>
      .cls-1 {
        fill: #999;
        fill-rule: evenodd;
      }
    </style>
  </defs>
  <path d="M13.697,10.615 C13.689,10.530 13.665,10.445 13.621,10.365 L8.205,0.361 C8.045,0.067 7.685,-0.072 7.358,0.035 C7.030,0.144 6.834,0.466 6.897,0.794 L9.008,11.888 C9.025,11.975 9.059,12.054 9.107,12.126 C9.127,12.221 9.152,12.316 9.185,12.410 C9.526,13.359 10.455,13.999 11.499,13.999 C11.769,13.999 12.036,13.957 12.293,13.871 C12.911,13.668 13.410,13.244 13.697,12.679 C13.984,12.115 14.025,11.478 13.814,10.883 C13.780,10.790 13.741,10.700 13.697,10.615 L13.697,10.615 ZM11.500,0.762 C11.114,0.762 10.801,1.063 10.801,1.433 C10.801,1.804 11.114,2.106 11.500,2.106 C17.070,2.106 21.601,6.463 21.601,11.820 C21.601,12.191 21.914,12.491 22.301,12.491 C22.687,12.491 23.000,12.191 23.000,11.820 C23.000,5.722 17.840,0.762 11.500,0.762 L11.500,0.762 ZM4.273,3.218 C1.557,5.329 -0.000,8.465 -0.000,11.820 C-0.000,12.191 0.313,12.492 0.699,12.492 C1.086,12.492 1.399,12.191 1.399,11.820 C1.399,8.873 2.766,6.118 5.152,4.263 C5.453,4.030 5.499,3.606 5.257,3.318 C5.015,3.029 4.574,2.983 4.273,3.218 L4.273,3.218 ZM4.273,3.218 L4.273,3.218 Z" class="cls-1"/>
</svg>
